# xmcd
#
# Track frame offsets: 
#        150
#        25884
#        51445
#        68264
#        85108
#        105173
#        128497
#        145130
#        164949
#        184101
#        202144
#        223170
#
# Disc length: 3407 seconds
#
# Revision: 0
# Processed by: cddbd v1.5.2PL0 Copyright (c) Steve Scherf et al.
# Submitted via: ExactAudioCopy v0.99pb4
#
DISCID=aa0d4d0c
DTITLE=Anna Treter - Bez retuszu
DYEAR=2007
DGENRE=Ballad
TTITLE0=Na poludnie
TTITLE1=To juz tyle tyle lat
TTITLE2=Piosenka taneczna
TTITLE3=Psalm 2003
TTITLE4=Zima 2005
TTITLE5=Jak zwykle nic
TTITLE6=Cmy barowe
TTITLE7=Byle dobrze bylo nam
TTITLE8=Czas, czas
TTITLE9=Czwarta b
TTITLE10=Za jakis czas
TTITLE11=Nasze podroze
EXTD=
EXTT0=
EXTT1=
EXTT2=
EXTT3=
EXTT4=
EXTT5=
EXTT6=
EXTT7=
EXTT8=
EXTT9=
EXTT10=
EXTT11=
PLAYORDER=
